<svg version="1.1" xmlns="http://www.w3.org/2000/svg" style="display: block;" viewBox="0 0 2048 2048" width="512" height="512">
<path transform="translate(0,0)" fill="rgb(38,70,83)" d="M 773.941 51.115 C 790.067 49.8343 803.13 63.0303 813.859 73.1553 L 834.992 92.7158 C 898.31 150.584 958.644 214.585 1006.42 286.096 C 1152.79 505.182 1186.59 768.52 1089.75 1017 C 1080.35 1041.12 1069.52 1064.93 1062 1089.71 C 1067.85 1090.37 1074.34 1089.28 1080.26 1088.98 L 1126.06 1086.06 L 1152.84 944.288 C 1200.91 725.454 1345.3 619.84 1564.96 588.331 C 1586.99 585.17 1609.51 585.592 1631.72 585.522 L 1700.26 586.627 C 1720.63 587.906 1741.25 591.269 1761.5 593.881 L 1873 610.976 C 1959.91 627.784 1944.88 648.052 1930.5 726.451 C 1908.44 846.734 1864.59 993.67 1761.91 1071.56 C 1756.46 1075.69 1746.6 1085.81 1741.55 1088.13 L 1900.4 1089.23 C 1922.53 1089.26 1968.14 1081.31 1983.76 1101.86 L 1986.01 1104.78 C 1997.6 1121.2 1991.91 1168.34 1991.87 1188.17 L 1991.93 1399.37 C 1991.95 1411.72 1993.59 1426.64 1991.35 1438.71 L 1991.08 1440 C 1985.78 1467.69 1961.3 1465.9 1939.91 1465.73 L 1886.04 1465.04 L 1796.96 1950.21 L 1792.7 1963.5 C 1785.84 1978.86 1775.24 1981.65 1760.03 1982.15 L 296.233 1982.41 C 289.176 1982.35 277.47 1983.35 271.35 1979.75 L 268.266 1977.91 C 246.567 1965.33 247.213 1929.38 243.595 1907.94 L 168.517 1513.5 C 165.442 1497.91 163.713 1481.47 159.936 1466.13 C 121.33 1462.68 59.5824 1481.08 56.6936 1429.63 C 55.526 1408.83 56.3783 1387.57 56.3678 1366.73 L 56.2531 1126.65 C 56.2611 1109 58.1404 1097.28 77.452 1090.81 L 79 1090.43 C 88.0635 1088.14 98.4063 1089.09 107.747 1089.07 L 307.074 1089.68 C 304.399 1088.03 301.644 1086.21 299.391 1084.01 L 265.867 1054.06 C 173.775 964.73 134.8 829.914 114.996 706.5 L 110.244 669.851 C 106.793 632.386 116.511 625.292 153.383 617.238 L 185.188 609.991 C 221.851 602.293 258.735 597.05 295.953 592.927 L 352.378 586.507 C 367.968 585.361 383.803 585.558 399.435 585.516 L 514.704 592.343 C 537.689 595.258 562.144 598.041 584.124 605.586 C 580.483 581.64 573.432 558.257 571.198 534 C 556.407 373.398 632.144 225.77 724.5 99.127 C 738.021 80.5857 750.581 57.8042 773.941 51.115 z M 859.206 832.964 C 889.694 890.116 907.907 1020.67 909.202 1082.72 L 991.052 1090.3 C 980.014 1059.23 961.656 1030.86 950.34 999.5 L 892.669 822.093 L 890.5 820.272 C 888.477 822.02 886.348 822.899 886.5 825.849 L 886.782 827.818 C 871.838 828.054 872.68 822.44 859.206 832.964 z"/>
<path transform="translate(0,0)" fill="rgb(42,157,143)" d="M 859.206 832.964 C 851.771 829.225 844.075 811.056 839.844 803.849 L 819.798 771.504 C 787.161 722.094 753.717 687.358 700.641 658.927 L 662.483 639.587 C 656.552 629.17 652.983 617.912 649.456 606.502 C 596.415 434.895 676.181 263.679 783.105 131.384 L 784.417 131.989 C 789.022 134.698 793.844 139.98 797.961 143.593 C 864.037 201.577 936.89 288.719 984.329 364.881 C 1085.86 527.891 1101.43 738.229 1056.89 921.601 C 1049.67 951.304 1042.5 982.878 1026.35 1009.14 C 1012.99 988.019 986.191 911.343 978.324 885.903 L 883.709 520.5 L 827.36 311.089 C 822.096 291.211 818.259 250.736 792.192 246.276 C 745.72 238.325 757.358 291.667 764.934 318 L 840.971 614 L 887.5 787.793 C 889.73 798.058 894.13 811.745 892.669 822.093 L 890.5 820.272 C 888.477 822.02 886.348 822.899 886.5 825.849 L 886.782 827.818 C 871.838 828.054 872.68 822.44 859.206 832.964 z"/>
<path transform="translate(0,0)" fill="rgb(42,157,143)" d="M 361.562 650.484 C 394.275 650.485 427.694 649.128 460.315 650.978 C 658.786 662.235 798.677 773.909 835.658 973 L 843.361 1026.38 C 784.787 995.769 732.089 956.74 676.86 920.827 L 467 787.988 C 447.082 775.104 424.27 755.32 406.173 744.721 C 380.908 729.924 357.884 759.351 363.424 784.328 C 367.466 802.552 394.151 815.915 408.229 825.073 L 465.921 861.965 L 815.957 1085.69 C 804.457 1084.66 794.248 1086.46 782.927 1087.62 L 526.43 1089.08 C 512.888 1089.05 498.99 1089.69 485.5 1088.61 C 317.257 1075.26 230.987 934.616 194.5 782.143 L 174.465 676.426 C 236.494 663.967 298.185 652.905 361.562 650.484 z"/>
<path transform="translate(0,0)" fill="rgb(42,157,143)" d="M 1592.39 651.415 L 1681.29 650.884 C 1731.59 653.302 1781.4 661.21 1831.21 667.99 L 1877.3 673.039 C 1875.54 693.928 1869.88 716.014 1865.74 736.68 C 1846.35 833.355 1814.48 934.922 1742.5 1005.88 C 1673.09 1074.3 1615.25 1088.89 1518.78 1089.13 L 1226.09 1089.16 C 1232.98 1085.91 1246.85 1075.14 1254.37 1070.21 L 1524.08 900.915 L 1633.75 828.717 C 1647.64 819.501 1663.43 811.746 1676.5 801.564 C 1694.07 787.877 1700.33 751.653 1675.37 742.447 C 1652.1 733.866 1628.67 757.605 1611.32 769.5 L 1292.56 972.848 C 1263.46 991.579 1233.87 1011.15 1202.77 1026.39 C 1203.28 1008.38 1206.51 989.666 1209.95 972 C 1250.73 762.209 1391.69 666.085 1592.39 651.415 z"/>
<path transform="translate(0,0)" fill="rgb(231,111,81)" d="M 1910.91 1151.9 L 1930.12 1151.08 L 1930.44 1401.53 C 1924.05 1403.73 1911.08 1402.04 1904.06 1402.03 L 135.913 1401.94 L 118.668 1401.27 L 118.936 1153.86 L 1910.91 1151.9 z"/>
<path transform="translate(0,0)" fill="rgb(38,70,83)" d="M 217.709 1214.43 L 1799.04 1215 C 1809.71 1214.94 1820.45 1214.09 1831.1 1214.51 C 1874.78 1216.2 1876.81 1265.09 1852.2 1275.77 L 1851 1276.25 C 1845.11 1278.65 1838.11 1278.52 1831.82 1278.94 L 249.94 1280.11 C 236.873 1280.09 223.551 1280.58 210.528 1279.64 C 176.57 1277.19 158.549 1217.69 217.709 1214.43 z"/>
<path transform="translate(0,0)" fill="rgb(233,196,106)" d="M 1065.75 1465.48 L 1822.53 1465.62 L 1739.34 1920 L 982.02 1920.02 L 308.184 1919.1 L 223.555 1465.66 L 1065.75 1465.48 z"/>
<path transform="translate(0,0)" fill="rgb(38,70,83)" d="M 1018.31 1573.12 C 1035.91 1571.15 1052.85 1580.29 1053.69 1600 L 1053.84 1765.7 C 1054.36 1791.03 1059.8 1809.51 1031.03 1821.85 C 1016.88 1823.63 1000.51 1819.49 995.058 1804.61 L 994.136 1801.97 C 991.796 1794.61 993.28 1784.56 993.455 1776.87 L 993.827 1654.14 C 993.862 1637.18 989.896 1607.85 997.454 1592.48 L 998.2 1591 C 1003.02 1580.95 1008.2 1577.15 1018.31 1573.12 z"/>
<path transform="translate(0,0)" fill="rgb(38,70,83)" d="M 516.65 1572.32 C 554.044 1575.88 547.232 1618.57 547.214 1645.58 L 547.248 1748.55 C 547.357 1762.8 550.392 1778.51 548.974 1792.46 L 548.791 1794 C 547.287 1808.11 535.377 1818.38 522.304 1822.17 C 486.76 1824.94 486.746 1801.5 486.764 1773.11 L 486.874 1640.66 C 486.922 1614 480.536 1577.61 516.65 1572.32 z"/>
<path transform="translate(0,0)" fill="rgb(38,70,83)" d="M 1524.14 1573.16 C 1576.75 1570.2 1561.96 1637.65 1561.94 1672.57 L 1561.74 1783.64 C 1561.54 1804.04 1556.66 1815.68 1536.61 1824.79 C 1516.18 1827.27 1499.68 1809.79 1499.09 1789.58 C 1498.71 1776.57 1500.69 1763.38 1500.86 1750.29 L 1501.01 1619.13 C 1501.04 1598.72 1502.76 1582.22 1524.14 1573.16 z"/>
<path transform="translate(0,0)" fill="rgb(38,70,83)" d="M 765.403 1572.13 C 799.683 1567.93 801.69 1597.31 801.223 1620.6 L 801.463 1791.97 C 801.396 1795.27 801.344 1799.18 799.631 1802.08 L 799.048 1803 C 793.567 1811.93 786.587 1817.19 777.085 1821.2 C 763.217 1823.59 747.515 1817.63 741.353 1804.25 L 740.299 1801.87 C 738.041 1796.28 739.389 1787.16 739.529 1781.13 L 740.153 1612.47 C 740.876 1592.53 744.841 1579.95 765.403 1572.13 z"/>
<path transform="translate(0,0)" fill="rgb(38,70,83)" d="M 1275.86 1570.23 C 1316.56 1572.75 1308.32 1627.13 1308.35 1655.03 L 1308.49 1738.8 C 1308.58 1768.81 1319.58 1814.48 1278.51 1821.92 C 1239.03 1822.61 1246.58 1781.06 1247.07 1757.58 L 1247.45 1688.75 C 1247.54 1653.9 1232.95 1578.86 1275.86 1570.23 z"/>
</svg>