<?xml version="1.0" encoding="utf-8" ?>
<svg xmlns="http://www.w3.org/2000/svg" xmlns:xlink="http://www.w3.org/1999/xlink" width="184" height="186">
	<path fill="#264653" transform="scale(0.36033 0.363827)" d="M222.281 2.11974L280.147 2.00342C288.283 2.00888 295.449 1.61994 299.947 10.7207L300.577 11.9459C303.479 17.5782 302.726 24.2453 302.734 30.3612L302.739 51.1566C303.562 51.4459 304.707 51.2872 305.586 51.2865L342.072 51.2579C342.217 36.3399 346.489 33.1744 362.249 30.4255L394.437 22.6221C412.414 17.4377 421.564 13.4254 436.974 3.50511C441.531 0.57161 445.133 1.9266 448.875 5.10798C461.395 15.7514 466.911 30.9019 469.531 46.75C473.158 68.6835 470.083 90.112 458.334 109.052C454.491 115.247 446.308 125.961 437.613 123.859C434.429 123.089 431.2 120.364 428.342 118.743C416.306 111.911 402.883 106.955 389.75 102.749L378.155 99.5224C373.126 98.0241 367.761 97.0377 362.603 96.0638C347.236 93.1619 342.404 92.4288 342.116 75.0666C342.103 74.3152 342.276 73.0212 341.912 72.4219C336.744 71.8891 331.25 72.2366 326.034 72.2351L302.165 72.3665L301.494 79.9833C300.885 85.5467 301.34 83.832 304.107 88.6482C307.399 94.3788 306.03 100.731 306.596 106.998C312.25 105.368 321.467 106.484 326.602 109.732L327.886 110.553C331.994 113.332 335.39 118.583 336.318 123.445L336.372 123.738C337.086 127.34 336.868 131.094 336.873 134.75L336.896 149.887L398.279 167.582C405.95 169.532 413.816 171.931 420.943 175.399C449.546 189.315 464.171 217.444 463.894 248.335C463.672 273.061 455.933 296.893 449.668 320.596L432.714 386.57L410.06 473.75C405.12 494.07 394.688 509.568 372.309 509.944L142.238 509.958C139.569 509.954 136.67 510.156 134.057 509.577L132.5 509.255C129.923 508.747 127.431 507.626 125.081 506.479C104.808 496.58 104.368 480.846 99.0757 461.883L53.4499 287.25C50.3282 274.342 47.7125 261.638 47.7325 248.335C47.7721 222.073 58.5182 197.387 80.3533 182.003C95.1899 171.549 113.506 168.185 130.651 163.28L176.258 149.297C175.951 147.786 175.922 146.156 175.852 144.617L175.748 134.823C175.807 109.87 183.381 107.247 206.737 106.257L206.792 93.6608C207.087 89.5706 209.603 86.3362 212.615 83.8112L208.213 41.4736L208.042 27.3735C208.04 17.4764 209.131 3.16391 222.281 2.11974Z"/>
	<path fill="#E76F51" transform="scale(0.36033 0.363827)" d="M448.391 59.8292C452.153 59.816 450.879 65.5324 450.66 68.4767L428.445 64.4682L420.5 63.1857L448.391 59.8292Z"/>
	<path fill="#E9C46A" transform="scale(0.36033 0.363827)" d="M248.991 100.2L267.254 100.204C273.172 100.209 279.608 99.7026 285.457 100.553L286.004 106.305L264.431 106.336L240.581 106.335C236.285 106.332 231.472 106.756 227.266 105.96L227.245 100.721C229.771 99.987 232.97 100.245 235.598 100.231L248.991 100.2Z"/>
	<path fill="#E76F51" transform="scale(0.36033 0.363827)" d="M440.863 27.7743C443.331 29.8541 445.309 34.5355 446.703 37.3465C442.982 38.7989 439.073 39.4039 435.162 40.1225L422.989 42.5429C404.978 46.3804 387.601 51.9199 369.062 52.4122C367.086 52.7393 364.652 52.4913 362.625 52.4339L362.461 52.0505C364.121 50.1337 368.775 50.0585 371.095 49.5766L414.748 37.985C423.609 35.1568 432.64 32.1661 440.863 27.7743Z"/>
	<path fill="#E76F51" transform="scale(0.36033 0.363827)" d="M362.473 72.875C367.325 72.5563 372.91 73.7579 377.734 74.4653L410.316 80.2668L444.956 89.7323C445.359 89.8498 445.217 89.7335 445.416 90.0482L441.941 96.4428L439.932 99.6318C427.855 93.9262 416.057 88.6463 403.231 84.8009L365.441 75.2231C364.15 74.8707 362.835 74.5555 362.126 73.3239L362.473 72.875Z"/>
	<path fill="#E9C46A" transform="scale(0.36033 0.363827)" d="M197.149 127.131L316.231 127.303L316.245 137.9C316.246 139.804 316.383 141.788 316.141 143.672L315.336 143.562C303.578 142.455 292.464 142.593 281.211 142.588L213.93 142.611C208.375 142.622 202.539 142.332 197.031 143.029L196.655 127.28L197.149 127.131Z"/>
	<path fill="#BA9F63" transform="scale(0.36033 0.363827)" d="M128.178 482.675L344.25 482.148L351.814 481.692C363.337 481.56 374.481 482.117 385.915 480.407C383.831 483.812 381.393 486.274 377.75 487.979L377.406 488.147C375.702 488.95 373.745 489.068 371.888 489.143L336.77 489.198C334.28 489.224 331.792 489.848 329.25 489.883L142.154 489.9C136.163 489.638 131.633 487.861 128.178 482.675Z"/>
	<path fill="#E9C46A" transform="scale(0.36033 0.363827)" d="M230.416 21.3687L282.083 21.513C283.152 26.1541 281.901 31.7321 281.768 36.4747L280.983 79.4482L238.483 79.2915C236.649 79.289 234.674 79.4342 232.863 79.1946L228.471 21.4851L230.416 21.3687Z"/>
	<path fill="#264653" transform="scale(0.36033 0.363827)" d="M248.885 30.8055C266.516 29.2397 269.3 53.8006 252.731 58.2169C234.555 60.6028 232.764 33.7375 248.885 30.8055Z"/>
	<path fill="#E9C46A" transform="scale(0.36033 0.363827)" d="M128.178 482.662C123.958 478.02 123.474 472.885 121.937 467.266L378.577 466.993C382.498 467.003 386.638 466.797 390.477 467.695L390.285 468.875C389.672 472.96 388.062 476.894 385.915 480.407C374.481 482.117 363.337 481.56 351.814 481.692L344.25 482.148L128.178 482.662Z"/>
	<path fill="#E9C46A" transform="scale(0.36033 0.363827)" d="M219.404 162.991L290.017 163C311.39 163.025 320.789 165.349 340.367 172.004L386.738 185.355C402.308 189.871 416.608 194.091 428.449 205.703L386.603 211.876L307.633 218.678C302.267 219.055 296.927 219.622 291.533 219.453C279.787 220.732 267.665 220.256 255.882 220.246L222.83 220.063C220.976 219.987 219.207 219.665 217.375 219.509L82.9816 205.284C99.8321 190.131 122.351 186.962 143.366 180.917L173.603 171.55C189.993 166.291 201.892 162.972 219.404 162.991Z"/>
	<path fill="#E76F51" transform="scale(0.36033 0.363827)" d="M229.764 359.246L417.897 359.732C417.227 361.464 417.141 363.607 416.676 365.434L395.276 447.298L282.448 446.725L116.618 446.748C115.974 445.679 115.851 443.807 115.574 442.552L95.2384 364.078C94.9275 362.736 94.899 360.906 94.2639 359.712L229.764 359.246Z"/>
	<path fill="#2A9D8F" transform="scale(0.36033 0.363827)" d="M72.4913 223.724L114.424 230.035L192.722 238.257L221.053 239.433C223.133 239.549 225.201 239.893 227.278 239.961L280.64 240.076L318.391 238.235L348.217 235.77L426.5 225.918C430.645 225.187 434.699 224.324 438.905 223.973L439.614 224.924C447.026 235.465 443.125 263.913 440.332 275.982L430.009 314.375L424.923 334.238C423.335 339.846 424.721 339.256 418.795 339.253L88.4929 338.909C87.8769 337.373 87.6968 335.573 87.2049 333.968L71.9107 277.527C68.0464 260.119 65.1648 240.66 72.4913 223.724Z"/>
</svg>
