<?xml version="1.0" encoding="utf-8" ?>
<svg xmlns="http://www.w3.org/2000/svg" xmlns:xlink="http://www.w3.org/1999/xlink" width="200" height="202">
	<path fill="#264653" transform="scale(0.390625 0.394725)" d="M235.869 2.03604L260.739 2.00041C266.901 1.99961 273.314 1.62253 279.435 2.22858C342.872 8.50992 407.438 42.5566 448.571 90.983C481.601 129.87 502.153 178.503 508.463 229L509.851 239.75C510.322 245.382 509.998 251.282 510.002 256.937C510.012 273.262 509.534 282.613 506.583 298.896C485.956 412.72 391.069 498.314 275.811 509.212C273.415 509.327 271.024 509.657 268.625 509.739L255.373 509.803C244.312 509.826 233.971 509.004 223 507.501L206.653 504.914C105.366 484.107 24.212 399.689 4.92456 298.75L2.27935 280.429C1.93451 277.469 2.04149 274.401 2.03422 271.426L2.0188 257.802C2.0173 233.904 3.70102 217.916 10.1323 194.175L16.1273 173.799C18.6539 166.518 21.7494 159.436 24.9538 152.432L31.8101 137.875C66.2389 72.0162 130.499 24.17 202.625 7.30616C213.528 4.75695 224.407 3.51382 235.45 2.09309L235.869 2.03604Z"/>
	<path fill="#2A9D8F" transform="scale(0.390625 0.394725)" d="M248.397 18.8092L259.349 18.7519C290.887 18.7258 317.492 24.9715 346.512 37.181C415.569 66.2345 468.089 126.878 486.375 199.458C489.826 213.156 492.394 230.893 493.165 244.951L493.263 256.866C493.155 314.521 469.846 371.676 431.53 414.549C400.818 448.912 356.132 475.119 311.75 486.078C295.911 489.989 279.63 492.067 263.364 492.978C257.049 493.081 250.643 493.306 244.342 492.926C201.651 490.357 159.343 476.255 124.042 451.961C112.601 444.088 102.058 434.956 91.8624 425.551C51.9966 388.774 20.3006 323.927 18.3012 269.061C16.7598 226.759 26.726 182.089 46.708 144.872C54.085 131.132 68.4086 110 78.7046 98.9624C112.639 62.584 156.67 34.8319 205.604 24.2883L225.375 20.5778C232.956 19.543 240.752 19.0842 248.397 18.8092Z"/>
	<path fill="#264653" transform="scale(0.390625 0.394725)" d="M166.066 189.845C169.041 189.283 172.518 190.55 175.095 191.945C184.529 197.054 185.337 208.118 186.659 217.548L194.928 264.367C196.889 274.704 203.79 294.715 188.778 298.746L188.375 298.85C182.163 300.503 173.587 297.806 167.677 295.71L157.991 310.989C157.063 312.451 156.339 314.19 155.282 315.52L155.131 315.706C159.165 316.058 163.556 315.702 167.619 315.695L203.72 315.666C206.584 315.666 209.677 315.418 212.298 316.749L215.589 318.487C224.765 324.249 224.145 333.562 224.493 342.869L225.059 390.094C225.081 392.836 225.332 395.851 224.634 398.523L224.507 399C220.863 413.185 209.127 413.681 197.175 413.7L134.125 413.739L116.698 413.745C88.9422 413.736 86.7416 409.23 73.4959 383.992L55.625 352.257C38.1838 323.359 35.0291 320.185 51.3693 291.993L79.0145 241.338C79.2179 240.966 79.7174 240.548 79.3773 240.228L78.5892 239.488C73.8536 235.049 67.6855 230.249 66.6178 223.398C64.5451 210.096 75.0341 206.213 85.2041 204.251L166.066 189.845Z"/>
	<path fill="#E76F51" transform="scale(0.390625 0.394725)" d="M132.969 327.33C135.105 329.537 137.004 331.107 140 332.017L140.388 332.14C142.179 332.67 144.153 332.479 146.003 332.456L190.309 332.318C196.364 332.317 202.606 332.019 208.64 332.445L208.74 388.724C208.74 390.23 209.404 397.54 207.699 397.59L117.449 397.521C113.454 397.52 108.925 397.92 104.991 397.222L104.603 397.149C101.288 396.548 98.3933 394.826 96.2832 392.165C99.1367 389.044 101.158 385.115 103.286 381.485L124.057 345.312C127.476 339.552 131.6 333.999 132.969 327.33Z"/>
	<path fill="#E9C46A" transform="scale(0.390625 0.394725)" d="M96.2832 392.165C93.0679 388.281 90.9592 382.943 88.748 378.437L67.2743 339.933C63.4845 333.517 59.4793 326.993 56.7509 320.04C55.0214 315.632 68.9335 292.929 71.2182 288.716C80.2434 272.075 89.4579 255.331 97.0077 237.962C93.6671 231.134 87.1105 227.487 82.5238 221.764C83.7384 220.061 144.065 210.325 150.61 209.193L164.927 206.446C170.021 210.472 170.393 217.706 171.533 223.634L182.106 283.018C178.155 282.113 174.286 280.709 170.417 279.508C160.657 276.48 158.965 278.663 153.422 287.5L138.221 313.968C136.142 317.873 133.166 322.449 132.98 326.993L132.969 327.33C131.6 333.999 127.476 339.552 124.057 345.312L103.286 381.485C101.158 385.115 99.1367 389.044 96.2832 392.165Z"/>
	<path fill="#264653" transform="scale(0.390625 0.394725)" d="M227.435 37.1226L284.404 37.0965C309.486 37.0861 314.773 40.8694 325.579 61.929L356.149 118.606C356.742 119.674 357.857 118.591 358.839 118.149C365.297 115.242 374.402 110.395 381.748 112.623L382.125 112.744C399.347 118.079 392.872 135.605 388.923 147.779L372.717 196.121C369.145 206.853 366.353 216.387 353.674 218.994L353.25 219.077C345.474 220.642 331.072 214.506 323.634 212.056L285.923 199.612C276.617 196.241 263.542 195.206 260.257 184.112L259.827 182.492C258.571 175.342 262.059 171.478 265.936 166.11C265.822 164.834 260.523 155.908 259.64 153.315L249.18 173.792C243.755 185.14 239.053 198.92 224.396 199.938C215.702 200.543 207.863 193.597 200.837 189.507L169.75 171.219C146.071 156.617 139.62 151.031 153.818 126.307L181.534 75.3856C194.902 50.1424 195.198 37.2085 227.435 37.1226Z"/>
	<path fill="#E9C46A" transform="scale(0.390625 0.394725)" d="M221.895 54.1359L289.419 54.1181C297.072 54.1196 300.62 52.9836 305.528 59.7248C311.332 67.6974 315.376 76.9646 319.998 85.6326L342.546 126.168C344.052 128.756 345.909 132.147 348.455 133.828C359.826 141.335 381.66 119.173 376.686 135.211L354.478 199.297C353.851 200.822 353.114 202.118 351.995 203.35C348.181 203.288 344.273 201.933 340.643 200.835L284.322 182.231L276.12 180.169C280.21 175.431 282.959 171.643 284.639 165.52C283.792 163.697 282.574 162.014 281.469 160.336L268.527 139.501C265.88 135.068 261.081 124.628 253.97 131.124C251.056 133.786 249.351 138.832 247.545 142.352L230.238 176.37C227.248 182.459 226.833 185.137 220 181.748C212.381 177.97 205.064 173.04 197.698 168.745L182.155 159.656C175.478 155.802 167.969 152.196 162.605 146.531C162.83 140.708 169.117 131.608 171.861 126.504L196.576 80.7655C199.62 74.9765 208.199 56.8412 214.735 54.6643L215.125 54.5773C217.314 54.0725 219.656 54.1741 221.895 54.1359Z"/>
	<path fill="#264653" transform="scale(0.390625 0.394725)" d="M407.415 209.584L407.51 209.564C419.807 208.496 426.086 218.245 431.279 227.641L460.764 281.906C470.237 297.945 477.26 310.377 469.895 328.648C465.598 339.308 459.029 349.168 453.384 359.142L438.919 384.444C424.359 409.329 421.1 414.265 392.991 414.29L371.898 414.229C370.002 414.176 368.14 413.827 366.25 413.777L335.625 413.746C333.467 415.792 341.921 441.191 321.255 445.026C311.783 446.783 304.219 438.363 298.083 432.406L280.539 414.153L260.31 393.125C250.669 383.496 232.955 370.81 242.649 355.568C247.291 348.271 254.83 342.325 260.928 336.228L293.869 302.948C299.063 297.44 304.817 290.471 312.593 288.798L313 288.713C329.209 285.205 336.017 301.306 335.024 315.06L362.637 315.839L335.519 266.811C333.42 262.008 332.048 256.92 334.118 251.82L334.252 251.5C338.552 241.1 353.337 237.562 362.398 232.772L385.966 219.244C392.597 215.466 399.743 210.68 407.415 209.584Z"/>
	<path fill="#E9C46A" transform="scale(0.390625 0.394725)" d="M328.474 396.496L327.02 397.158C321.115 400.152 319.476 406.322 319.466 412.366L319.459 421.229C319.428 426.786 318.633 429.979 313.472 425.119C309.624 421.494 306.177 417.333 302.501 413.518L267.09 377.018C263.401 373.342 259.064 369.616 256.29 365.21L256.365 364.943C258.287 359.243 270.767 349.123 275.194 344.678L309.047 310.249C314.872 304.227 317.628 302.457 318.904 312.848C319.739 319.649 318.629 329.104 326.765 331.281L327.076 331.36C325.171 341.147 325.827 350.567 326.312 360.432L327.54 383.297C327.837 387.687 328.585 392.088 328.474 396.496Z"/>
	<path fill="#E76F51" transform="scale(0.390625 0.394725)" d="M327.076 331.36L366.805 331.743C371.185 331.748 375.485 331.92 379.013 328.782C386.103 322.475 381.901 316.854 378.265 310.443L350.941 261.699C350.366 260.745 349.392 259.628 349.08 258.576C362.14 249.176 377.329 243.012 391.438 235.398L400.626 230.094C403.572 228.275 406.542 226.276 409.848 225.178C415.3 228.946 419.013 238.81 422.18 244.524L448.375 293.074C460.685 314.759 459.673 314.717 448.417 334.621L423.401 378.339C420.932 382.659 418.525 387.108 415.68 391.196C410.42 398.754 406.072 397.552 397.835 397.55L332 397.403C330.695 397.338 329.602 397.219 328.477 396.496C328.585 392.088 327.837 387.687 327.54 383.297L326.312 360.432C325.827 350.567 325.171 341.147 327.076 331.36Z"/>
</svg>
