<?xml version="1.0" encoding="utf-8" ?>
<svg xmlns="http://www.w3.org/2000/svg" xmlns:xlink="http://www.w3.org/1999/xlink" width="189" height="193">
	<path fill="#264653" transform="scale(0.370443 0.378255)" d="M257.176 480.489C246.387 480.529 237.117 478.217 227.539 473.289L84.6899 391.012C80.103 388.401 75.396 385.821 71.1172 382.722C53.1049 369.675 43.1969 348.402 43.1862 326.434L43.2475 179.407C44.0338 162.908 53.5164 145.247 65.5947 134.473C72.9761 127.888 82.0282 123.455 90.5887 118.609L255.295 24.125L255.668 24.0278C256.714 24.2061 257.858 25.106 258.787 25.6592L432.929 125.128C453.147 137.219 468.209 157.54 469.049 181.591L469.152 313.897C469.157 322.913 469.803 332.251 468.022 341.125C461.063 375.808 437.259 385.43 410.46 400.528L294.334 467.843C281.912 475.048 271.971 480.057 257.176 480.489ZM227.152 108.375L119.5 170.995C102.334 180.731 100.819 182.999 100.827 201.449L100.85 304.585C100.841 327.453 99.3111 332.34 122.388 344.398L222.341 401.3C233.33 407.756 245.141 413.482 255.388 421.07L386.735 345.893C404.328 336.121 411.47 334.83 411.49 313.901L411.495 199.08C411.49 179.351 405.273 177.261 388.429 167.835L372.361 158.472L289.035 110.81C283.415 107.548 284.906 108.075 284.921 114.425L285.076 257.307C286.255 258.09 287.545 258.196 288.807 258.769L337.767 285.062C343.343 288.193 349.986 291.203 354.442 295.875C374.45 316.854 351.626 352.438 322.712 344.064C315.551 341.99 308.786 337.684 302.24 334.186L257.707 309.45C256.406 308.688 255.914 307.657 254.509 308.458L198.285 339.316C194.008 341.593 189.475 344 184.609 344.666C169.878 346.683 153.011 335.277 150.451 320.456C146.578 298.033 161.479 291.453 177.184 283.094L216.923 261.428C218.453 260.581 226.749 256.42 227.308 255.854L227.152 108.375Z"/>
</svg>
