<?xml version="1.0" encoding="utf-8" ?>
<svg xmlns="http://www.w3.org/2000/svg" xmlns:xlink="http://www.w3.org/1999/xlink" width="189" height="193">
	<path fill="#264653" transform="scale(0.370443 0.378255)" d="M316.08 393.467C326.513 396.215 323.736 398.413 323.744 408.606L323.749 462.506C323.748 466.08 324.885 478.713 322.798 481.216L322.552 481.5C321.085 483.225 319.417 484.613 317.056 484.646L77.0519 484.448C57.2016 483.593 46.6221 466.839 45.7959 448.648L45.7476 233.177C45.7491 229.292 45.5592 225.289 45.8463 221.42L17.9922 220.836C17.5498 220.964 17.5652 220.972 17.3321 221.286L16.8416 221.947C12.5024 227.028 4.6217 223.653 2.23255 218.375C1.56235 216.894 1.9879 171.281 2.02097 165.5C2.03268 163.454 1.76835 162.023 3.33757 160.491C9.17252 154.795 12.6703 152.229 19.1995 157.98C20.0708 158.748 20.9708 158.518 22.0544 158.517L45.93 158.522C46.6549 156.668 46.5328 153.9 46.8074 151.897L48.7957 140C52.5428 121.876 58.2378 103.59 67.3081 87.375C82.0058 61.099 108 36.7191 138.75 32.7314C145.174 31.8984 151.798 32.1137 158.267 32.1125L402.419 32.1248C409.233 32.1287 416.425 31.64 423.127 33.0534C443.688 37.3891 460.331 53.9205 471.398 70.9488C491.042 101.172 500.227 140.708 502.392 176.662L502.619 195.763C502.636 251.747 484.627 349.23 419.087 359.224C413.757 360.037 408.013 359.7 402.626 359.705L331.121 359.73C328.45 359.706 325.326 359.757 322.735 359.079L322.282 358.952L321.061 356.956C319.989 355.291 320.009 351.915 319.923 349.949L319.871 237.712C319.867 225.679 319.795 213.729 320.675 201.718C324.352 151.485 338.715 80.9527 377.413 45.5424L152.651 45.5784C99.7738 45.6445 71.0263 93.6453 61.5345 140.493L59.0335 155.92C58.1789 162.447 58.0545 168.534 58.0482 175.126L58.4278 403.019C59.1573 402.075 60.4072 401.825 61.2548 401.02C65.6006 396.892 67.7561 391.265 74.049 397.144C82.3661 404.914 89.7246 413.885 98.9178 420.674L119.908 399.233C129.673 389.469 130.343 391.398 140.306 401.035C142.394 403.054 160.517 420.313 160.712 420.331C160.808 420.339 160.853 420.198 160.924 420.131L183.931 398.199C194.499 387.538 196.074 394.66 205.956 403.939L223.572 420.736C227.519 416.283 249.197 393.398 254.875 392.732C256.889 392.496 258.811 394.299 260.21 395.548L286.004 420.202L305.031 401.653C307.718 399.153 312.077 393.528 316.08 393.467Z"/>
	<path fill="#4EC4BE" transform="scale(0.370443 0.378255)" d="M338.993 163.672C339.503 158.833 343.229 124.959 345.609 122.617L346.575 123.323C346.152 128.356 344.783 133.331 344.022 138.328L340.991 160.045C340.751 161.313 340.589 163.413 338.993 163.672Z"/>
	<path fill="#F4A261" transform="scale(0.370443 0.378255)" d="M331.684 269.513C332.696 271.715 333.252 274.228 333.968 276.544L338.045 288.777C346.083 310.475 358.93 332.919 378.055 346.777C377.236 346.794 375.77 346.589 374.873 346.579L332.401 346.399L332.402 298.786C332.404 289.11 332.964 279.117 331.684 269.513Z"/>
	<path fill="#E76F51" transform="scale(0.370443 0.378255)" d="M99.7734 437.539C104.997 433.081 109.506 427.789 114.485 423.049L122.016 416.024C124.532 413.795 127.306 411.647 129.399 409.001L144.914 423.848C164.367 443.092 160.165 439.425 179.101 420.866C183.356 416.695 188.037 412.913 192.063 408.525C194.383 411.323 197.357 413.864 199.953 416.422L210.956 427.046C214.577 430.523 218.551 435.005 223.179 437.114C230.472 435.49 237.263 425.797 242.443 420.692C246.504 416.691 251.029 413.11 255.277 409.306L258.926 413.29L273.611 427.345C288.741 441.623 286.025 438.55 299.553 425.953L307.054 419.093C308.468 417.808 310.635 416.477 311.421 414.667L311.252 471.075L83 471.168C63.6909 471.238 58.0478 461.357 58.0307 442.994L58.0568 427.935C58.0512 421.34 56.385 422.507 60.8985 418.967C63.8992 416.613 67.2456 414.135 69.9332 411.431C74.3629 416.171 94.9242 437.27 99.7734 437.539Z"/>
	<path fill="#F4A261" transform="scale(0.370443 0.378255)" d="M99.7734 437.539C104.997 433.081 109.506 427.789 114.485 423.049L122.016 416.024C124.532 413.795 127.306 411.647 129.399 409.001L144.914 423.848C164.367 443.092 160.165 439.425 179.101 420.866C183.356 416.695 188.037 412.913 192.063 408.525C194.383 411.323 197.357 413.864 199.953 416.422L210.956 427.046C214.577 430.523 218.551 435.005 223.179 437.114C230.472 435.49 237.263 425.797 242.443 420.692C246.504 416.691 251.029 413.11 255.277 409.306L258.926 413.29C257.165 422.692 256.999 433.216 257.509 442.755L258.541 454.574L109.529 454.536C99.7745 454.53 97.5444 456.003 98.5042 443.716C98.6732 441.552 99.5687 439.597 99.7734 437.539Z"/>
	<path fill="#2A9D8F" transform="scale(0.370443 0.378255)" d="M346.575 123.323L346.875 124.377C348.197 123.845 349.225 118.827 349.702 117.526L355.261 103.053C362.666 84.8236 373.033 66.2679 389.571 54.8536C406.982 42.8371 425.779 44.7532 442.504 58.0359C471.583 81.1297 484.979 131.071 488.907 166.47C490.522 181.022 490.761 201.648 489.733 216.452C486.918 256.978 467.256 339.821 419.052 344.938C394.128 347.583 374.552 329.719 362.449 310.017C342.902 278.197 336.706 242.564 336.707 205.909C336.708 195.417 336.422 173.693 338.993 163.672C340.589 163.413 340.751 161.313 340.991 160.045L344.022 138.328C344.783 133.331 346.152 128.356 346.575 123.323Z"/>
	<path fill="#264653" transform="scale(0.370443 0.378255)" d="M410.688 121.596C419.801 120.804 427.265 123.631 433.972 129.547C454.929 148.032 458.621 182.776 456.757 208.876C455.082 232.32 445.436 268.926 419.471 276.457C411.682 278.243 403.333 275.033 397.251 270.219C376.821 254.051 372.473 222.184 372.479 197.325C372.485 175.275 376.921 151.226 391.051 133.567C396.11 127.244 402.452 122.524 410.688 121.596Z"/>
	<path fill="#E76F51" transform="scale(0.370443 0.378255)" d="M414.606 134.592C430.736 133.676 439.755 165.722 441.826 177.537L443.337 187.318C443.819 190.929 443.73 194.707 443.744 198.343C443.817 217.529 441.021 237.985 429 253.652C425.505 258.208 421.212 262.313 415.302 263.072C408.192 262.997 403.234 258.105 399.304 252.728C388.46 237.893 385.447 218.017 385.435 200C385.424 181.525 389.97 137.191 414.606 134.592Z"/>
	<defs>
		<linearGradient id="gradient_0" gradientUnits="userSpaceOnUse" x1="56.380058" y1="226.65131" x2="369.418" y2="237.41544">
			<stop offset="0" stop-color="#F2B366"/>
			<stop offset="1" stop-color="#E4D26D"/>
		</linearGradient>
	</defs>
	<path fill="url(#gradient_0)" transform="scale(0.370443 0.378255)" d="M316.08 393.467C312.077 393.528 307.718 399.153 305.031 401.653L286.004 420.202L260.21 395.548C258.811 394.299 256.889 392.496 254.875 392.732C249.197 393.398 227.519 416.283 223.572 420.736L205.956 403.939C196.074 394.66 194.499 387.538 183.931 398.199L160.924 420.131C160.853 420.198 160.808 420.339 160.712 420.331C160.517 420.313 142.394 403.054 140.306 401.035C130.343 391.398 129.673 389.469 119.908 399.233L98.9178 420.674C89.7246 413.885 82.3661 404.914 74.049 397.144C67.7561 391.265 65.6006 396.892 61.2548 401.02C60.4072 401.825 59.1573 402.075 58.4278 403.019L58.0482 175.126C58.0545 168.534 58.1789 162.447 59.0335 155.92L61.5345 140.493C71.0263 93.6453 99.7738 45.6445 152.651 45.5784L377.413 45.5424C338.715 80.9527 324.352 151.485 320.675 201.718C319.795 213.729 319.867 225.679 319.871 237.712L319.923 349.949C320.009 351.915 319.989 355.291 321.061 356.956L322.282 358.952C320.154 361.917 321.413 366.673 319.029 369.794C318.79 370.566 318.621 371.304 318.49 372.101L317.961 380.059C317.796 384.163 318.139 389.848 316.08 393.467Z"/>
	<path fill="#264653" transform="scale(0.370443 0.378255)" d="M314.219 289.125L315.215 288.978C317.859 288.729 318.229 290.447 317.392 292.642L316.375 292.961C313.614 292.925 311.327 291.107 314.219 289.125Z"/>
	<path fill="#574A69" transform="scale(0.370443 0.378255)" d="M254.202 373.125C256.961 372.703 260.194 376.121 257.375 378.711C254.059 379.991 251.459 375.288 254.202 373.125Z"/>
	<path fill="#264653" transform="scale(0.370443 0.378255)" d="M313.261 313.767L314.125 313.681C318.272 313.562 320.03 317.501 316.574 318.407C313.738 318.168 309.329 316.243 313.261 313.767Z"/>
	<path fill="#264653" transform="scale(0.370443 0.378255)" d="M222.087 396.625C226.531 395.911 227.571 400.301 223.625 402.32C220.182 403.363 217.732 398.353 222.087 396.625Z"/>
	<path fill="#264653" transform="scale(0.370443 0.378255)" d="M229.849 381.875C233.495 382.039 234.379 387.97 230.125 388.379L229.467 388.212C225.52 386.82 226.536 383.075 229.849 381.875Z"/>
	<path fill="#264653" transform="scale(0.370443 0.378255)" d="M159.549 396.875C163.604 395.833 165.823 402.098 161.875 403.511C158.27 403.674 155.833 399.057 159.549 396.875Z"/>
	<path fill="#264653" transform="scale(0.370443 0.378255)" d="M286.595 395.875C290.942 394.919 291.384 401.345 286.375 402.09C280.9 401.986 282.516 397.4 286.595 395.875Z"/>
	<path fill="#264653" transform="scale(0.370443 0.378255)" d="M295.045 381.06C299.499 381.409 303.592 383.91 298.13 386.923C293.091 388.469 289.779 382.433 295.045 381.06Z"/>
	<path fill="#264653" transform="scale(0.370443 0.378255)" d="M318.49 372.101C316.264 372.283 309.681 376.511 308.787 368.5C310.221 363.635 317.642 365.288 319.029 369.794C318.79 370.566 318.621 371.304 318.49 372.101Z"/>
</svg>
